<mxfile host="app.diagrams.net" modified="2023-04-13T07:12:07.095Z" agent="Mozilla/5.0 (Windows NT 10.0; Win64; x64) AppleWebKit/537.36 (KHTML, like Gecko) Chrome/112.0.0.0 Safari/537.36" etag="c0WaAyEuBwK1GEeyfVla" version="21.1.7" type="github">
  <diagram name="페이지-1" id="MJM8aEVxXbG2EPH6wSez">
    <mxGraphModel dx="1125" dy="1100" grid="1" gridSize="10" guides="1" tooltips="1" connect="1" arrows="1" fold="1" page="1" pageScale="1" pageWidth="827" pageHeight="1169" math="0" shadow="0">
      <root>
        <mxCell id="0" />
        <mxCell id="1" parent="0" />
        <mxCell id="SurrAtzOvMmR1hYGzebW-36" style="edgeStyle=orthogonalEdgeStyle;rounded=0;orthogonalLoop=1;jettySize=auto;html=1;exitX=0.5;exitY=1;exitDx=0;exitDy=0;exitPerimeter=0;entryX=0.5;entryY=0;entryDx=0;entryDy=0;entryPerimeter=0;" edge="1" parent="1" source="SurrAtzOvMmR1hYGzebW-4" target="SurrAtzOvMmR1hYGzebW-8">
          <mxGeometry relative="1" as="geometry" />
        </mxCell>
        <mxCell id="SurrAtzOvMmR1hYGzebW-4" value="&lt;font style=&quot;font-size: 20px;&quot;&gt;집에서나옴&lt;/font&gt;" style="strokeWidth=2;html=1;shape=mxgraph.flowchart.terminator;whiteSpace=wrap;" vertex="1" parent="1">
          <mxGeometry x="300" y="110" width="150" height="50" as="geometry" />
        </mxCell>
        <mxCell id="SurrAtzOvMmR1hYGzebW-8" value="&lt;font style=&quot;font-size: 20px;&quot;&gt;엘리베이터 탑승대기&lt;/font&gt;" style="strokeWidth=2;html=1;shape=mxgraph.flowchart.decision;whiteSpace=wrap;" vertex="1" parent="1">
          <mxGeometry x="200" y="190" width="350" height="100" as="geometry" />
        </mxCell>
        <mxCell id="SurrAtzOvMmR1hYGzebW-19" style="edgeStyle=orthogonalEdgeStyle;rounded=0;orthogonalLoop=1;jettySize=auto;html=1;" edge="1" parent="1" source="SurrAtzOvMmR1hYGzebW-10" target="SurrAtzOvMmR1hYGzebW-18">
          <mxGeometry relative="1" as="geometry" />
        </mxCell>
        <mxCell id="SurrAtzOvMmR1hYGzebW-10" value="&lt;font style=&quot;font-size: 20px;&quot;&gt;1층 도착&lt;/font&gt;" style="rounded=1;whiteSpace=wrap;html=1;absoluteArcSize=1;arcSize=14;strokeWidth=2;" vertex="1" parent="1">
          <mxGeometry x="275" y="350" width="200" height="40" as="geometry" />
        </mxCell>
        <mxCell id="SurrAtzOvMmR1hYGzebW-12" value="" style="endArrow=classic;html=1;rounded=0;exitX=0.963;exitY=0.48;exitDx=0;exitDy=0;exitPerimeter=0;" edge="1" parent="1" source="SurrAtzOvMmR1hYGzebW-8">
          <mxGeometry relative="1" as="geometry">
            <mxPoint x="480" y="220" as="sourcePoint" />
            <mxPoint x="380" y="170" as="targetPoint" />
            <Array as="points">
              <mxPoint x="590" y="170" />
            </Array>
          </mxGeometry>
        </mxCell>
        <mxCell id="SurrAtzOvMmR1hYGzebW-13" value="엘리베이터 도착x" style="edgeLabel;resizable=0;html=1;align=center;verticalAlign=middle;" connectable="0" vertex="1" parent="SurrAtzOvMmR1hYGzebW-12">
          <mxGeometry relative="1" as="geometry" />
        </mxCell>
        <mxCell id="SurrAtzOvMmR1hYGzebW-14" value="" style="endArrow=classic;html=1;rounded=0;" edge="1" parent="1" source="SurrAtzOvMmR1hYGzebW-8" target="SurrAtzOvMmR1hYGzebW-10">
          <mxGeometry relative="1" as="geometry">
            <mxPoint x="373" y="290" as="sourcePoint" />
            <mxPoint x="377.5" y="360" as="targetPoint" />
          </mxGeometry>
        </mxCell>
        <mxCell id="SurrAtzOvMmR1hYGzebW-15" value="엘리베이터도착" style="edgeLabel;resizable=0;html=1;align=center;verticalAlign=middle;" connectable="0" vertex="1" parent="SurrAtzOvMmR1hYGzebW-14">
          <mxGeometry relative="1" as="geometry">
            <mxPoint as="offset" />
          </mxGeometry>
        </mxCell>
        <mxCell id="SurrAtzOvMmR1hYGzebW-22" style="edgeStyle=orthogonalEdgeStyle;rounded=0;orthogonalLoop=1;jettySize=auto;html=1;" edge="1" parent="1" source="SurrAtzOvMmR1hYGzebW-18" target="SurrAtzOvMmR1hYGzebW-20">
          <mxGeometry relative="1" as="geometry" />
        </mxCell>
        <mxCell id="SurrAtzOvMmR1hYGzebW-18" value="&lt;font style=&quot;font-size: 20px;&quot;&gt;학원 도착&lt;/font&gt;" style="rounded=1;whiteSpace=wrap;html=1;absoluteArcSize=1;arcSize=14;strokeWidth=2;" vertex="1" parent="1">
          <mxGeometry x="275" y="420" width="200" height="40" as="geometry" />
        </mxCell>
        <mxCell id="SurrAtzOvMmR1hYGzebW-30" style="edgeStyle=orthogonalEdgeStyle;rounded=0;orthogonalLoop=1;jettySize=auto;html=1;entryX=0.5;entryY=0;entryDx=0;entryDy=0;entryPerimeter=0;" edge="1" parent="1" source="SurrAtzOvMmR1hYGzebW-20" target="SurrAtzOvMmR1hYGzebW-23">
          <mxGeometry relative="1" as="geometry" />
        </mxCell>
        <mxCell id="SurrAtzOvMmR1hYGzebW-20" value="&lt;font style=&quot;font-size: 20px;&quot;&gt;행정실 도착&lt;/font&gt;" style="rounded=1;whiteSpace=wrap;html=1;absoluteArcSize=1;arcSize=14;strokeWidth=2;" vertex="1" parent="1">
          <mxGeometry x="216.25" y="490" width="317.5" height="50" as="geometry" />
        </mxCell>
        <mxCell id="SurrAtzOvMmR1hYGzebW-23" value="&lt;font style=&quot;font-size: 20px;&quot;&gt;용무 유무&lt;/font&gt;" style="strokeWidth=2;html=1;shape=mxgraph.flowchart.decision;whiteSpace=wrap;" vertex="1" parent="1">
          <mxGeometry x="218.13" y="590" width="313.75" height="70" as="geometry" />
        </mxCell>
        <mxCell id="SurrAtzOvMmR1hYGzebW-26" value="" style="endArrow=classic;html=1;rounded=0;entryX=1;entryY=0.5;entryDx=0;entryDy=0;exitX=1;exitY=0.5;exitDx=0;exitDy=0;exitPerimeter=0;" edge="1" parent="1" source="SurrAtzOvMmR1hYGzebW-23" target="SurrAtzOvMmR1hYGzebW-20">
          <mxGeometry relative="1" as="geometry">
            <mxPoint x="533.75" y="604.5" as="sourcePoint" />
            <mxPoint x="620" y="470" as="targetPoint" />
            <Array as="points">
              <mxPoint x="620" y="625" />
              <mxPoint x="620" y="515" />
            </Array>
          </mxGeometry>
        </mxCell>
        <mxCell id="SurrAtzOvMmR1hYGzebW-27" value="용무 있음" style="edgeLabel;resizable=0;html=1;align=center;verticalAlign=middle;" connectable="0" vertex="1" parent="SurrAtzOvMmR1hYGzebW-26">
          <mxGeometry relative="1" as="geometry" />
        </mxCell>
        <mxCell id="SurrAtzOvMmR1hYGzebW-28" value="" style="endArrow=classic;html=1;rounded=0;exitX=0.5;exitY=1;exitDx=0;exitDy=0;exitPerimeter=0;" edge="1" parent="1" source="SurrAtzOvMmR1hYGzebW-23" target="SurrAtzOvMmR1hYGzebW-31">
          <mxGeometry relative="1" as="geometry">
            <mxPoint x="384.99" y="670" as="sourcePoint" />
            <mxPoint x="375" y="710" as="targetPoint" />
          </mxGeometry>
        </mxCell>
        <mxCell id="SurrAtzOvMmR1hYGzebW-29" value="용무 없음" style="edgeLabel;resizable=0;html=1;align=center;verticalAlign=middle;" connectable="0" vertex="1" parent="SurrAtzOvMmR1hYGzebW-28">
          <mxGeometry relative="1" as="geometry" />
        </mxCell>
        <mxCell id="SurrAtzOvMmR1hYGzebW-38" style="edgeStyle=orthogonalEdgeStyle;rounded=0;orthogonalLoop=1;jettySize=auto;html=1;entryX=0.5;entryY=0;entryDx=0;entryDy=0;entryPerimeter=0;" edge="1" parent="1" source="SurrAtzOvMmR1hYGzebW-31" target="SurrAtzOvMmR1hYGzebW-33">
          <mxGeometry relative="1" as="geometry" />
        </mxCell>
        <mxCell id="SurrAtzOvMmR1hYGzebW-31" value="&lt;font style=&quot;font-size: 20px;&quot;&gt;506호로&lt;/font&gt;" style="rounded=1;whiteSpace=wrap;html=1;absoluteArcSize=1;arcSize=14;strokeWidth=2;" vertex="1" parent="1">
          <mxGeometry x="297.51" y="710" width="155" height="40" as="geometry" />
        </mxCell>
        <mxCell id="SurrAtzOvMmR1hYGzebW-33" value="&lt;font style=&quot;font-size: 20px;&quot;&gt;종료&lt;/font&gt;" style="strokeWidth=2;html=1;shape=mxgraph.flowchart.terminator;whiteSpace=wrap;" vertex="1" parent="1">
          <mxGeometry x="325.01" y="790" width="100" height="30" as="geometry" />
        </mxCell>
      </root>
    </mxGraphModel>
  </diagram>
</mxfile>
